<svg xmlns="http://www.w3.org/2000/svg" viewBox="0 0 350 220">
  <rect width="350" height="220" rx="12" fill="#f8fafc"/>
  <rect x="0" y="0" width="350" height="4" rx="2" fill="#6C47D8"/>
  <!-- Title -->
  <text x="24" y="36" fill="#111827" font-family="system-ui, sans-serif" font-size="16" font-weight="800">Model Routing</text>
  <text x="24" y="54" fill="#6b7280" font-family="system-ui, sans-serif" font-size="11">6 tiers · 20+ models · auto-escalation</text>
  <!-- Tier bars -->
  <g transform="translate(24, 72)">
    <rect x="0" y="0" width="110" height="20" rx="4" fill="#0F6E56" opacity="0.15"/>
    <text x="8" y="14" fill="#0F6E56" font-family="monospace" font-size="9" font-weight="600">cheap_chat</text>
    <text x="100" y="14" fill="#0F6E56" font-family="monospace" font-size="8" text-anchor="end">$</text>
    <rect x="0" y="26" width="140" height="20" rx="4" fill="#0F6E56" opacity="0.12"/>
    <text x="8" y="40" fill="#0F6E56" font-family="monospace" font-size="9" font-weight="600">cheap_structured</text>
    <text x="130" y="40" fill="#0F6E56" font-family="monospace" font-size="8" text-anchor="end">$$</text>
    <rect x="0" y="52" width="180" height="20" rx="4" fill="#6C47D8" opacity="0.15"/>
    <text x="8" y="66" fill="#6C47D8" font-family="monospace" font-size="9" font-weight="600">fast_code</text>
    <text x="170" y="66" fill="#6C47D8" font-family="monospace" font-size="8" text-anchor="end">$$$</text>
    <rect x="0" y="78" width="220" height="20" rx="4" fill="#6C47D8" opacity="0.12"/>
    <text x="8" y="92" fill="#6C47D8" font-family="monospace" font-size="9" font-weight="600">reasoning_pro</text>
    <text x="210" y="92" fill="#6C47D8" font-family="monospace" font-size="8" text-anchor="end">$$$$</text>
    <rect x="0" y="104" width="260" height="20" rx="4" fill="#d97706" opacity="0.12"/>
    <text x="8" y="118" fill="#d97706" font-family="monospace" font-size="9" font-weight="600">tool_agent</text>
    <text x="250" y="118" fill="#d97706" font-family="monospace" font-size="8" text-anchor="end">$$$$$</text>
    <rect x="0" y="130" width="300" height="20" rx="4" fill="#dc2626" opacity="0.1"/>
    <text x="8" y="144" fill="#dc2626" font-family="monospace" font-size="9" font-weight="600">best_available</text>
    <text x="290" y="144" fill="#dc2626" font-family="monospace" font-size="8" text-anchor="end">$$$$$$</text>
  </g>
</svg>
